<?xml version="1.0" standalone="no"?>
<!DOCTYPE svg PUBLIC "-//W3C//DTD SVG 20010904//EN"
 "http://www.w3.org/TR/2001/REC-SVG-20010904/DTD/svg10.dtd">
<svg version="1.0" xmlns="http://www.w3.org/2000/svg"
 width="238.000000pt" height="248.000000pt" viewBox="0 0 238.000000 248.000000"
 preserveAspectRatio="xMidYMid meet">

<g transform="translate(0.000000,248.000000) scale(0.100000,-0.100000)"
fill="#000000" stroke="none">
<path d="M732 1784 c-45 -20 -30 -87 31 -141 44 -39 57 -41 272 -46 144 -4
179 -8 227 -26 79 -30 150 -97 190 -179 29 -59 33 -76 33 -147 -1 -95 -29
-167 -94 -237 -85 -93 -170 -118 -403 -118 -127 0 -154 -3 -186 -19 -75 -39
-114 -106 -86 -148 l16 -25 256 4 c246 4 260 5 323 29 143 55 238 136 301 255
163 310 13 673 -322 780 -45 14 -101 18 -300 20 -135 2 -251 1 -258 -2z"/>
<path d="M886 1476 c-132 -49 -200 -199 -146 -324 27 -62 91 -123 148 -140 22
-7 102 -12 183 -12 130 0 149 3 194 24 85 39 138 119 103 154 -9 9 -70 12
-215 12 -190 0 -204 1 -223 20 -11 11 -20 27 -20 35 0 8 9 24 20 35 19 19 33
20 223 20 215 0 227 3 227 47 0 30 -53 89 -104 116 -36 19 -59 22 -196 24
-115 2 -165 -1 -194 -11z"/>
</g>
</svg>
